<?xml version="1.0"?>
<svg version="1.1" xmlns="http://www.w3.org/2000/svg" width="300" height="100" style=""><path fill="#02cfb3" d="M16.19140625,66.2890625q0-0.68359375,0.46875-0.869140625t1.015625-0.185546875q0.95703125,0,1.62109375,0.859375t1.259765625,1.884765625t1.181640625,1.884765625t1.38671875,0.859375q0.60546875,0,1.103515625-0.302734375t0.859375-0.76171875t0.556640625-1.03515625t0.1953125-1.142578125q0-1.484375-0.595703125-3.06640625t-1.5234375-3.26171875t-1.962890625-3.4375t-1.953125-3.57421875t-1.5234375-3.701171875t-0.60546875-3.798828125q0-2.87109375,1.71875-4.453125t4.53125-1.58203125q0.95703125,0,1.93359375,0.2734375t1.796875,0.8203125t1.337890625,1.34765625t0.517578125,1.875q0,0.3515625-0.517578125,0.458984375t-0.751953125,0.107421875q-0.3515625,0-0.76171875-0.087890625t-0.52734375-0.478515625t-0.33203125-0.8984375t-0.537109375-0.947265625t-0.76171875-0.76171875t-0.966796875-0.322265625q-0.87890625,0-1.494140625,0.361328125t-0.99609375,0.966796875t-0.56640625,1.357421875t-0.185546875,1.552734375q0,1.875,0.64453125,3.779296875t1.6015625,3.7890625t2.080078125,3.720703125t2.080078125,3.57421875t1.6015625,3.3984375t0.64453125,3.14453125q0,1.328125-0.625,2.24609375t-1.58203125,1.494140625t-2.119140625,0.83984375t-2.275390625,0.263671875q-1.19140625,0-2.44140625-0.478515625t-2.24609375-1.318359375t-1.640625-1.962890625t-0.64453125-2.431640625z M33.7630859375,62.71484375q0-1.328125,0.361328125-2.55859375t1.083984375-2.197265625t1.806640625-1.54296875t2.509765625-0.576171875q0.87890625,0,1.943359375,0.263671875t2.001953125,0.78125t1.5625,1.318359375t0.625,1.8359375q0,0.48828125-0.166015625,0.7421875t-0.673828125,0.25390625l-0.21484375-0.0390625q0.56640625,1.5234375,0.9765625,3.125t0.80078125,3.203125q0.15625,0.3125,0.234375,0.556640625t0.078125,0.478515625q0,0.3125-0.17578125,0.517578125t-0.458984375,0.302734375t-0.5859375,0.13671875t-0.537109375,0.0390625q-0.83984375,0-1.259765625-0.29296875t-0.60546875-0.80078125t-0.224609375-1.142578125t-0.15625-1.279296875q-0.234375,0.76171875-0.615234375,1.484375t-0.8984375,1.298828125t-1.220703125,0.91796875t-1.58203125,0.341796875q-1.2890625,0-2.16796875-0.7421875t-1.416015625-1.826171875t-0.78125-2.314453125t-0.244140625-2.28515625z M36.5365234375,62.44140625q0,0.72265625,0.09765625,1.5234375t0.322265625,1.58203125t0.576171875,1.474609375t0.87890625,1.220703125q0.95703125-1.03515625,1.416015625-2.51953125t0.8203125-2.861328125t0.8203125-2.36328125t1.416015625-0.986328125q0.60546875,0,1.015625,0.21484375q-0.1953125-0.48828125-0.64453125-0.947265625t-1.005859375-0.83984375t-1.15234375-0.625t-1.123046875-0.244140625q-0.15625,0-0.361328125,0.048828125t-0.322265625,0.009765625q-0.80078125,0.234375-1.318359375,0.810546875t-0.83984375,1.357421875t-0.458984375,1.6015625t-0.13671875,1.54296875z M50.7390625,57.822265625q-0.048828125-0.654296875,0.078125-1.201171875t0.5078125-0.888671875t1.220703125-0.341796875q0.1953125,0,0.478515625,0.048828125t0.556640625,0.126953125t0.458984375,0.234375t0.185546875,0.4296875l0,2.20703125q0.76171875-0.87890625,1.66015625-1.259765625t2.05078125-0.380859375q0.87890625,0,1.73828125,0.400390625t1.62109375,1.064453125t1.318359375,1.46484375t0.810546875,1.6015625q0.15625-0.72265625,0.3515625-1.767578125t0.576171875-2.001953125t1.005859375-1.640625t1.66015625-0.68359375q1.11328125,0,1.875,0.80078125t1.240234375,2.080078125t0.72265625,2.861328125t0.361328125,3.125t0.1171875,2.880859375l0,2.099609375q0,0.234375-0.17578125,0.380859375t-0.439453125,0.224609375t-0.546875,0.09765625t-0.439453125,0.01953125q-0.60546875,0-1.103515625-0.185546875t-0.498046875-0.947265625l0-1.7578125t-0.0390625-2.275390625t-0.13671875-2.44140625t-0.25390625-2.216796875t-0.400390625-1.6015625t-0.595703125-0.625q-0.48828125,0-0.703125,0.546875t-0.361328125,1.38671875t-0.224609375,1.77734375t-0.21484375,1.77734375t-0.439453125,1.376953125t-0.830078125,0.537109375q-0.56640625,0-0.99609375-0.537109375t-0.849609375-1.337890625t-0.83984375-1.71875t-0.927734375-1.71875q-0.5078125-0.8203125-1.09375-1.328125q-0.52734375-0.48828125-1.19140625-0.46875l-0.09765625,0q-0.87890625,0.0390625-1.376953125,0.634765625t-0.76171875,1.455078125t-0.322265625,1.845703125t-0.05859375,1.728515625q0,0.703125,0.1171875,1.640625q0.078125,0.625,0.078125,1.19140625q0,0.29296875-0.01953125,0.56640625q-0.05859375,0.8203125-0.439453125,1.376953125t-1.416015625,0.556640625q-0.390625,0-0.9765625-0.078125t-0.78125-0.52734375q-0.44921875-0.80078125-0.68359375-2.021484375t-0.3515625-2.51953125t-0.13671875-2.578125t-0.01953125-2.197265625q0-0.64453125-0.048828125-1.298828125z M75.3712890625,62.24609375q0-1.796875,0.419921875-3.525390625t0.712890625-3.447265625q0.078125-0.44921875,0.615234375-0.556640625t0.908203125-0.107421875q0.64453125,0,1.03515625,0.1953125q0.15625,0.078125,0.29296875,0.17578125t0.13671875,0.25390625q0,1.6796875-0.400390625,3.28125t-0.400390625,3.3984375q0,0.60546875,0.087890625,1.142578125t0.166015625,1.064453125l0.1171875,0.56640625q0,0.15625,0.01953125,0.2734375t0.05859375,0.2734375q0,0.3515625-0.498046875,0.478515625t-0.869140625,0.126953125q-0.56640625,0-1.044921875-0.224609375t-0.751953125-0.771484375l-0.2734375-0.56640625q-0.234375-0.44921875-0.234375-1.005859375t-0.09765625-1.025390625z M76.6212890625,50.48828125l0-0.37109375q0-0.91796875,0.458984375-1.640625t1.376953125-0.72265625q0.1171875,0,0.224609375,0.01953125t0.224609375,0.01953125q0.234375,0.0390625,0.615234375,0.185546875t0.380859375,0.458984375l0,0.0390625q-0.078125,0.15625-0.09765625,0.322265625t-0.09765625,0.283203125l0.0390625-0.0390625q-0.234375,0.60546875-0.380859375,0.9765625t-0.322265625,0.595703125t-0.439453125,0.322265625t-0.751953125,0.09765625q-0.078125,0-0.2734375-0.01953125t-0.419921875-0.078125t-0.380859375-0.15625t-0.15625-0.29296875z M83.9,57.24609375q0-0.80078125,0.283203125-1.34765625t1.201171875-0.546875q0.3515625,0,0.87890625,0.107421875t0.60546875,0.537109375q0.1953125,1.15234375,0.21484375,2.5t0.13671875,2.5390625q0.44921875-0.87890625,1.15234375-1.89453125t1.6015625-1.875t1.953125-1.42578125t2.1484375-0.56640625q0.078125,0,0.29296875,0.05859375t0.400390625,0.166015625t0.224609375,0.244140625t-0.21484375,0.25390625q-0.078125,0.234375-0.33203125,0.283203125t-0.44921875,0.048828125q-0.1171875,0-0.37109375-0.09765625q-1.4453125,0.76171875-2.4609375,2.0703125t-1.66015625,2.900390625t-0.9375,3.359375t-0.29296875,3.447265625q0,0.83984375-0.380859375,1.015625t-1.220703125,0.17578125q-0.44921875,0-0.947265625-0.09765625t-0.693359375-0.625q-0.3515625-1.11328125-0.576171875-2.55859375t-0.341796875-2.978515625t-0.166015625-3.017578125t-0.048828125-2.67578125z M97.7802734375,62.71484375q0-1.328125,0.361328125-2.55859375t1.083984375-2.197265625t1.806640625-1.54296875t2.509765625-0.576171875q0.87890625,0,1.943359375,0.263671875t2.001953125,0.78125t1.5625,1.318359375t0.625,1.8359375q0,0.48828125-0.166015625,0.7421875t-0.673828125,0.25390625l-0.21484375-0.0390625q0.56640625,1.5234375,0.9765625,3.125t0.80078125,3.203125q0.15625,0.3125,0.234375,0.556640625t0.078125,0.478515625q0,0.3125-0.17578125,0.517578125t-0.458984375,0.302734375t-0.5859375,0.13671875t-0.537109375,0.0390625q-0.83984375,0-1.259765625-0.29296875t-0.60546875-0.80078125t-0.224609375-1.142578125t-0.15625-1.279296875q-0.234375,0.76171875-0.615234375,1.484375t-0.8984375,1.298828125t-1.220703125,0.91796875t-1.58203125,0.341796875q-1.2890625,0-2.16796875-0.7421875t-1.416015625-1.826171875t-0.78125-2.314453125t-0.244140625-2.28515625z M100.5537109375,62.44140625q0,0.72265625,0.09765625,1.5234375t0.322265625,1.58203125t0.576171875,1.474609375t0.87890625,1.220703125q0.95703125-1.03515625,1.416015625-2.51953125t0.8203125-2.861328125t0.8203125-2.36328125t1.416015625-0.986328125q0.60546875,0,1.015625,0.21484375q-0.1953125-0.48828125-0.64453125-0.947265625t-1.005859375-0.83984375t-1.15234375-0.625t-1.123046875-0.244140625q-0.15625,0-0.361328125,0.048828125t-0.322265625,0.009765625q-0.80078125,0.234375-1.318359375,0.810546875t-0.83984375,1.357421875t-0.458984375,1.6015625t-0.13671875,1.54296875z M122.2009765625,69.55078125q0-0.1171875,0.078125-0.830078125t0.205078125-1.73828125t0.283203125-2.20703125t0.2734375-2.236328125t0.205078125-1.85546875t0.087890625-1.07421875q-0.15625-0.078125-0.380859375-0.224609375t-0.224609375-0.341796875q0-0.2734375,0.263671875-0.439453125t0.458984375-0.244140625q0.078125-0.99609375,0.1953125-2.7734375t0.361328125-3.837890625t0.68359375-4.1796875t1.162109375-3.84765625t1.73828125-2.822265625t2.5-1.09375t2.4609375,0.9375t1.591796875,2.44140625t0.9375,3.33984375t0.48828125,3.65234375t0.205078125,3.3984375t0.078125,2.5390625q0.0390625,0.60546875,0.29296875,0.810546875t0.556640625,0.283203125t0.546875,0.17578125t0.244140625,0.48828125q0,0.44921875-0.546875,0.625t-0.859375,0.21484375q0.1953125,2.44140625,0.537109375,4.8046875t0.908203125,4.765625q0.078125,0.44921875,0.21484375,0.908203125t0.13671875,0.888671875q0,0.3125-0.21484375,0.517578125t-0.556640625,0.322265625t-0.68359375,0.15625t-0.576171875,0.0390625q-0.87890625,0-1.484375-0.33203125t-0.80078125-1.26953125q-0.52734375-2.51953125-1.03515625-5.29296875q-0.4296875-2.40234375-0.4296875-4.66796875q0-0.3515625,0.01953125-0.703125q-1.640625,0-3.30078125,0.078125t-3.18359375,0.5859375q-0.0390625,0.52734375-0.1953125,1.9921875t-0.3515625,3.14453125t-0.400390625,3.212890625t-0.244140625,2.177734375q-0.0390625,0.2734375-0.400390625,0.517578125t-0.78125,0.263671875t-0.7421875-0.263671875t-0.322265625-1.005859375z M125.8533203125,57.71484375q1.5234375-0.3515625,3.056640625-0.41015625t3.095703125-0.13671875q-0.078125-0.48828125-0.0390625-1.005859375t0.0390625-1.044921875q0-1.15234375-0.05859375-2.67578125t-0.17578125-3.0859375t-0.302734375-3.076171875t-0.419921875-2.6953125t-0.498046875-1.884765625t-0.576171875-0.703125q-0.60546875,0.0390625-1.142578125,1.044921875t-0.9765625,2.55859375t-0.80078125,3.4765625t-0.60546875,3.759765625t-0.400390625,3.41796875t-0.1953125,2.4609375z M141.88203125,62.03125q0-1.07421875,0.205078125-2.294921875t0.703125-2.236328125t1.376953125-1.6796875t2.24609375-0.6640625q0.91796875,0,1.77734375,0.302734375t1.62109375,0.830078125q0.234375-0.390625,0.7421875-0.478515625t0.8984375-0.087890625q0.15625,0,0.439453125,0.01953125t0.556640625,0.1171875t0.478515625,0.234375t0.244140625,0.390625q0.15625,1.3671875,0.21484375,2.724609375t0.17578125,2.705078125q0.1953125,2.51953125,0.60546875,4.98046875t0.41015625,4.98046875q0,1.19140625-0.107421875,2.578125t-0.56640625,2.568359375t-1.337890625,1.962890625t-2.44140625,0.78125q-1.40625,0-2.158203125-0.498046875t-1.357421875-1.669921875q0.0390625-0.390625,0.498046875-0.517578125t0.791015625-0.126953125q0.3125,0,0.634765625,0.05859375t0.517578125,0.1953125l0.48828125,0.3125q0.72265625-1.484375,0.87890625-3.2421875t0.15625-3.3984375q0-1.3671875-0.13671875-2.705078125t-0.2734375-2.685546875q-1.3671875,2.48046875-4.16015625,2.48046875q-1.2890625,0-2.099609375-0.546875t-1.25-1.38671875t-0.60546875-1.89453125t-0.166015625-2.109375z M144.284375,62.20703125q0,0.48828125,0.0390625,1.259765625t0.205078125,1.513671875t0.478515625,1.279296875t0.87890625,0.537109375q1.07421875,0,1.69921875-0.83984375t0.986328125-2.001953125t0.576171875-2.40234375t0.546875-2.041015625q-0.0390625-0.2734375-0.0390625-0.537109375l0-0.537109375q-0.44921875-0.83984375-1.30859375-1.455078125t-1.77734375-0.830078125q-0.1171875-0.01953125-0.21484375-0.01953125q-0.546875,0-0.8984375,0.64453125q-0.44921875,0.78125-0.703125,1.865234375t-0.361328125,2.138671875t-0.107421875,1.42578125z M158.5748046875,64.84375l0-1.8359375q0-0.99609375,0.048828125-2.822265625t0.126953125-4.00390625t0.21484375-4.541015625t0.3125-4.462890625t0.419921875-3.759765625t0.556640625-2.4609375q0.1953125-0.44921875,0.64453125-0.56640625t0.87890625-0.1171875q0.68359375,0,1.201171875,0.302734375t0.517578125,1.103515625l-0.3515625,0.390625q-0.68359375,4.51171875-0.87890625,9.0625t-0.2734375,9.1015625q0.48828125-0.76171875,1.103515625-1.494140625t1.3671875-1.298828125t1.62109375-0.908203125t1.904296875-0.341796875q1.328125,0,2.197265625,0.80078125t1.435546875,2.080078125t0.83984375,2.861328125t0.419921875,3.1640625t0.205078125,2.998046875t0.17578125,2.353515625q-0.37109375,0.5078125-1.09375,0.5078125l-0.05859375,0q-0.3125,0-0.68359375-0.078125t-0.48828125-0.390625l0.0390625,0.0390625q-0.2734375-0.60546875-0.37109375-1.748046875t-0.15625-2.51953125t-0.205078125-2.822265625t-0.439453125-2.6171875t-0.859375-1.93359375t-1.5234375-0.80078125l-0.1171875,0q-1.15234375,0-1.93359375,0.703125q-0.8203125,0.7421875-1.328125,1.953125t-0.78125,2.6953125t-0.419921875,2.861328125t-0.224609375,2.5t-0.1953125,1.650390625q-0.1171875,0.44921875-0.693359375,0.595703125t-0.986328125,0.146484375q-0.95703125,0-1.5625-0.546875q-0.44921875-1.07421875-0.52734375-2.67578125t-0.078125-3.125z M177.259765625,62.71484375q0-1.328125,0.361328125-2.55859375t1.083984375-2.197265625t1.806640625-1.54296875t2.509765625-0.576171875q0.87890625,0,1.943359375,0.263671875t2.001953125,0.78125t1.5625,1.318359375t0.625,1.8359375q0,0.48828125-0.166015625,0.7421875t-0.673828125,0.25390625l-0.21484375-0.0390625q0.56640625,1.5234375,0.9765625,3.125t0.80078125,3.203125q0.15625,0.3125,0.234375,0.556640625t0.078125,0.478515625q0,0.3125-0.17578125,0.517578125t-0.458984375,0.302734375t-0.5859375,0.13671875t-0.537109375,0.0390625q-0.83984375,0-1.259765625-0.29296875t-0.60546875-0.80078125t-0.224609375-1.142578125t-0.15625-1.279296875q-0.234375,0.76171875-0.615234375,1.484375t-0.8984375,1.298828125t-1.220703125,0.91796875t-1.58203125,0.341796875q-1.2890625,0-2.16796875-0.7421875t-1.416015625-1.826171875t-0.78125-2.314453125t-0.244140625-2.28515625z M180.033203125,62.44140625q0,0.72265625,0.09765625,1.5234375t0.322265625,1.58203125t0.576171875,1.474609375t0.87890625,1.220703125q0.95703125-1.03515625,1.416015625-2.51953125t0.8203125-2.861328125t0.8203125-2.36328125t1.416015625-0.986328125q0.60546875,0,1.015625,0.21484375q-0.1953125-0.48828125-0.64453125-0.947265625t-1.005859375-0.83984375t-1.15234375-0.625t-1.123046875-0.244140625q-0.15625,0-0.361328125,0.048828125t-0.322265625,0.009765625q-0.80078125,0.234375-1.318359375,0.810546875t-0.83984375,1.357421875t-0.458984375,1.6015625t-0.13671875,1.54296875z M190.8958984375,83.603515625q0.068359375-0.283203125,0.283203125-0.439453125t0.703125-0.15625q0.52734375,0,0.99609375,0.3125t0.68359375,0.76171875q0.68359375-1.07421875,1.07421875-2.5t0.595703125-2.96875t0.244140625-3.037109375t0.0390625-2.744140625q0-3.92578125,0.09765625-7.71484375t0.3125-7.71484375q0-0.2734375,0.234375-0.458984375t0.537109375-0.283203125t0.625-0.13671875t0.556640625-0.0390625q0.44921875,0,0.87890625,0.1171875t0.80078125,0.3515625l0.234375,0.44921875q-0.0390625,2.79296875-0.15625,5.576171875t-0.1171875,5.537109375q0,1.07421875,0.0390625,2.8125q0.01953125,0.56640625,0.01953125,1.171875q0,1.2109375-0.05859375,2.5390625q-0.078125,1.9921875-0.341796875,4.013671875t-0.859375,3.662109375t-1.62109375,2.685546875t-2.587890625,1.044921875q-0.68359375,0-1.279296875-0.166015625t-1.064453125-0.634765625q-0.44921875-0.390625-0.64453125-0.83984375q-0.1171875-0.2734375-0.205078125-0.595703125t-0.01953125-0.60546875z M196.4330078125,52.36328125l0-1.201171875t0.13671875-1.0546875t0.517578125-0.7421875t1.103515625-0.283203125q0.2734375,0,0.556640625,0.0390625t0.537109375,0.15625l0.4296875,0.48828125q0,0.56640625,0.01953125,1.25l0,0.15625q0,0.5859375-0.1171875,1.09375q-0.13671875,0.60546875-0.498046875,1.025390625t-1.123046875,0.419921875q-0.60546875,0-0.91796875-0.17578125t-0.60546875-0.7421875z M203.78984375,62.71484375q0-1.328125,0.361328125-2.55859375t1.083984375-2.197265625t1.806640625-1.54296875t2.509765625-0.576171875q0.87890625,0,1.943359375,0.263671875t2.001953125,0.78125t1.5625,1.318359375t0.625,1.8359375q0,0.48828125-0.166015625,0.7421875t-0.673828125,0.25390625l-0.21484375-0.0390625q0.56640625,1.5234375,0.9765625,3.125t0.80078125,3.203125q0.15625,0.3125,0.234375,0.556640625t0.078125,0.478515625q0,0.3125-0.17578125,0.517578125t-0.458984375,0.302734375t-0.5859375,0.13671875t-0.537109375,0.0390625q-0.83984375,0-1.259765625-0.29296875t-0.60546875-0.80078125t-0.224609375-1.142578125t-0.15625-1.279296875q-0.234375,0.76171875-0.615234375,1.484375t-0.8984375,1.298828125t-1.220703125,0.91796875t-1.58203125,0.341796875q-1.2890625,0-2.16796875-0.7421875t-1.416015625-1.826171875t-0.78125-2.314453125t-0.244140625-2.28515625z M206.56328125,62.44140625q0,0.72265625,0.09765625,1.5234375t0.322265625,1.58203125t0.576171875,1.474609375t0.87890625,1.220703125q0.95703125-1.03515625,1.416015625-2.51953125t0.8203125-2.861328125t0.8203125-2.36328125t1.416015625-0.986328125q0.60546875,0,1.015625,0.21484375q-0.1953125-0.48828125-0.64453125-0.947265625t-1.005859375-0.83984375t-1.15234375-0.625t-1.123046875-0.244140625q-0.15625,0-0.361328125,0.048828125t-0.322265625,0.009765625q-0.80078125,0.234375-1.318359375,0.810546875t-0.83984375,1.357421875t-0.458984375,1.6015625t-0.13671875,1.54296875z M220.7365234375,62.8125l0-0.56640625q0-0.703125,0.0390625-1.328125q0.0390625-0.87890625,0.0390625-1.4453125q0-0.3125,0.0390625-0.712890625t0.1953125-0.634765625q0.1953125-0.1953125,0.458984375-0.400390625t0.576171875-0.205078125q0.99609375,0,1.5625,0.224609375t0.60546875,0.927734375l0.078125,0.60546875q0.3515625-0.83984375,0.9375-2.080078125t1.357421875-2.36328125t1.73828125-1.9140625t2.041015625-0.791015625q0.99609375,0,1.640625,0.9375t1.025390625,2.392578125t0.537109375,3.2421875t0.21484375,3.505859375t0.078125,3.134765625t0.13671875,2.138671875q0.078125,0.60546875,0.263671875,1.279296875t0.185546875,1.240234375q0,0.15625-0.224609375,0.302734375t-0.478515625,0.244140625t-0.517578125,0.15625t-0.380859375,0.05859375q-0.76171875,0-1.083984375-1.142578125t-0.400390625-2.861328125t-0.078125-3.720703125t-0.13671875-3.720703125t-0.556640625-2.861328125t-1.337890625-1.181640625q-0.83984375,0-1.73828125,1.083984375t-1.54296875,2.880859375q-0.625,1.796875-0.859375,4.08203125q-0.078125,0.72265625-0.078125,1.4453125q0,1.58203125,0.33203125,3.1640625q0.0390625,0.2734375-0.224609375,0.41015625t-0.654296875,0.21484375t-0.791015625,0.09765625t-0.615234375,0.01953125q-0.76171875,0-1.220703125-0.537109375t-0.712890625-1.376953125t-0.341796875-1.884765625t-0.107421875-2.060546875z M238.483984375,62.24609375q0-1.796875,0.419921875-3.525390625t0.712890625-3.447265625q0.078125-0.44921875,0.615234375-0.556640625t0.908203125-0.107421875q0.64453125,0,1.03515625,0.1953125q0.15625,0.078125,0.29296875,0.17578125t0.13671875,0.25390625q0,1.6796875-0.400390625,3.28125t-0.400390625,3.3984375q0,0.60546875,0.087890625,1.142578125t0.166015625,1.064453125l0.1171875,0.56640625q0,0.15625,0.01953125,0.2734375t0.05859375,0.2734375q0,0.3515625-0.498046875,0.478515625t-0.869140625,0.126953125q-0.56640625,0-1.044921875-0.224609375t-0.751953125-0.771484375l-0.2734375-0.56640625q-0.234375-0.44921875-0.234375-1.005859375t-0.09765625-1.025390625z M239.733984375,50.48828125l0-0.37109375q0-0.91796875,0.458984375-1.640625t1.376953125-0.72265625q0.1171875,0,0.224609375,0.01953125t0.224609375,0.01953125q0.234375,0.0390625,0.615234375,0.185546875t0.380859375,0.458984375l0,0.0390625q-0.078125,0.15625-0.09765625,0.322265625t-0.09765625,0.283203125l0.0390625-0.0390625q-0.234375,0.60546875-0.380859375,0.9765625t-0.322265625,0.595703125t-0.439453125,0.322265625t-0.751953125,0.09765625q-0.078125,0-0.2734375-0.01953125t-0.419921875-0.078125t-0.380859375-0.15625t-0.15625-0.29296875z"/><path fill="#" d=""/></svg>
